# xmcd
#
# Track frame offsets:
#	150
#	21417
#	51645
#	81307
#	104872
#	129037
#	154545
#	180775
#	211660
#
# Disc length: 3244 seconds
#
# Revision: 1
# Processed by: cddbd v1.5.2PL0 Copyright (c) Steve Scherf et al.
# Submitted via: EZCDAudioConverter 4.0.5.1
#
DISCID=700caa09
DTITLE=Aynsley Lister - Pay Attention !
DYEAR=1997
DGENRE=Blues
TTITLE0=Dynamite
TTITLE1=I'm Ready
TTITLE2=Need Her So Bad
TTITLE3=When My Baby She Left Me
TTITLE4=Identity Blues
TTITLE5=Crossroads
TTITLE6=Without you
TTITLE7=Take Me To The River
TTITLE8=Voodoo Chile
EXTD=
EXTT0=
EXTT1=
EXTT2=
EXTT3=
EXTT4=
EXTT5=
EXTT6=
EXTT7=
EXTT8=
PLAYORDER=
